<?xml version="1.0" encoding="utf-8"?>

<!-- Uploaded to: SVG Repo, www.svgrepo.com, Transformed by: SVG Repo Mixer Tools -->
<svg width="800px" height="800px" viewBox="0 -21.61 349.005 349.005" xmlns="http://www.w3.org/2000/svg" fill="#000000">

<g id="SVGRepo_bgCarrier" stroke-width="0"/>

<g id="SVGRepo_tracerCarrier" stroke-linecap="round" stroke-linejoin="round"/>

<g id="SVGRepo_iconCarrier">

<defs>

<style>.a{fill:#ffffff;}.b{fill:#a98a75;}.c{fill:#211715;}.d{fill:#f4b3b3;}</style>

</defs>

<path class="a" d="M180.875,232.7c6.57,20.873,15.194,48.35,19.891,63.374a5.633,5.633,0,0,1-2.574,6.575l-.537.309.567-.237c12.083-5.041,51.207-22.425,58.625-25.833l-4.46-9.952S191.777,236.536,180.875,232.7Z"/>

<path class="b" d="M151.324,127.09c-6.235,1.211-12.294-8.028-12.472-12.708-.654-17.156,2.6-30.4-.856-49.7-1.211-25.167,5.012-40.353,17.851-51.045a51.575,51.575,0,0,1,34.262-11.2A58.446,58.446,0,0,1,211.9,7.083a36.366,36.366,0,0,1,9.246,5.42l6.119,5.2a2.682,2.682,0,0,1,.234.227c7.471,7.747,13.606,20.238,13.837,32.1.09,4.175.033,15.267.144,18.722.351,10.8,2.5,20.5,5.078,30.208,1.273,4.8,3.273,9.377,2.885,16.309-.2,3.536-1.631,8.079-6.1,10.365Z"/>

<path class="a" d="M194.87,38.354a124.942,124.942,0,0,0,5.575,12.928c2.464,4.852,8.815,13.084,14.35,15.581l10.108,2.6a6.707,6.707,0,0,1,4.814-1.2,6.053,6.053,0,0,1,5.119,3.332c1.549,3.186.967,8.735-.577,12.067a17.551,17.551,0,0,1-6.423,7.986,12.9,12.9,0,0,1-6.339,1.634c-.215.542-.364.923-.364.923-.761,1.7-2.589,4.7-2.589,4.7-.773,1.213-1.571,2.4-2.418,3.568l.043.3A36.022,36.022,0,0,0,217.425,108a11.566,11.566,0,0,0,4.828,5.237,52.127,52.127,0,0,0,6.65,2.876c-11.155,10.647-26.691,20.458-42.521,21.38-4.931.287-10.022-.192-14.471-2.339S163.734,129,162.8,124.152v-5.93a39.409,39.409,0,0,1-6.43-4.1c-7.563-5.856-11.039-15.32-12.483-25.847-.861-6.282-1.643-13.133-2.751-19.95,1.249-.855,2.382-1.752,3-2.243,7.3-5.714,15.1-12.752,22.218-19.4-.2,2.975-.521,5.838-1,8.827a1.017,1.017,0,0,0,1.317,1.138c11.156-3.8,21.424-10.309,28.094-18.544"/>

<path class="c" d="M225.57,19.4C231,24.669,234.9,31.942,237.1,39.125a40.926,40.926,0,0,1,1.848,11.194c.054,2.778.047,5.558.055,8.337a157.274,157.274,0,0,0,.961,20.413,162.673,162.673,0,0,0,5.426,24.455c1.881,6.378,3.926,16.2-3.252,20.034-2.727,1.455-.3,5.6,2.422,4.145,7.4-3.946,8.1-12.81,6.763-20.2-.656-3.634-1.915-7.134-2.846-10.7-1.156-4.43-2.208-8.89-3.015-13.4a127.729,127.729,0,0,1-1.651-22.248c-.023-6.927.3-13.908-1.364-20.692-2.176-8.9-6.859-18.029-13.479-24.455-2.218-2.152-5.616,1.238-3.394,3.395Z"/>

<path class="c" d="M222.359,10.43C210.448,1.4,194.026-1.53,179.432.729A51.687,51.687,0,0,0,148.537,17.4C140.683,26.384,137,37.7,135.871,49.43a98.87,98.87,0,0,0-.414,10.706,39.689,39.689,0,0,0,.4,6.165q.518,3.061.829,6.152a150.382,150.382,0,0,1,.188,22.463c-.178,3.608-.373,7.215-.459,10.827-.082,3.418-.4,7.146.288,10.514,1.1,5.36,5.514,11.22,10.822,12.922a9.244,9.244,0,0,0,4.442.226,2.419,2.419,0,0,0,1.676-2.953,2.456,2.456,0,0,0-2.952-1.676,4.717,4.717,0,0,1-2.51-.474,10.213,10.213,0,0,1-2.8-2.106,15.944,15.944,0,0,1-3.755-6.1c-.078-.248-.15-.5-.212-.752-.034-.139-.159-.8-.136-.622a5.371,5.371,0,0,0-.028-.556c-.023-.5-.033-1.01-.045-1.514-.042-1.754-.046-3.509-.021-5.263.049-3.432.211-6.86.382-10.287a182.746,182.746,0,0,0,.216-21.089q-.185-2.814-.523-5.616c-.248-2.048-.707-4.1-.878-6.153a81.269,81.269,0,0,1-.006-10.619c.533-10.878,3.119-21.676,9.683-30.521a45.906,45.906,0,0,1,25.52-16.686,55.151,55.151,0,0,1,21.32-1.029,50.292,50.292,0,0,1,18.024,5.784,48.96,48.96,0,0,1,5.021,3.4,2.414,2.414,0,0,0,3.283-.861,2.458,2.458,0,0,0-.861-3.284Z"/>

<path class="c" d="M209.979,112.86a58.177,58.177,0,0,0,8.78-9.963,47.343,47.343,0,0,0,4.446-7.48,2.471,2.471,0,0,0-.861-3.284,2.419,2.419,0,0,0-3.283.861,47.053,47.053,0,0,1-4.286,7.252,53.119,53.119,0,0,1-8.19,9.22,2.4,2.4,0,0,0,3.394,3.394Z"/>

<path class="c" d="M198.478,114c-10.243,5.037-22.461,7.692-33.273,2.738a30.075,30.075,0,0,1-12.643-10.18,40.929,40.929,0,0,1-5.776-15.32c-1.433-7.551-2.024-15.268-3.226-22.861a2.417,2.417,0,0,0-2.952-1.676,2.458,2.458,0,0,0-1.676,2.952c1.14,7.2,1.783,14.487,3.011,21.673a46.238,46.238,0,0,0,6.078,17.047c6.64,10.454,19.339,16.325,31.557,15.771,7.528-.342,14.6-2.7,21.323-6a2.424,2.424,0,0,0,.861-3.283,2.449,2.449,0,0,0-3.284-.861Z"/>

<path class="c" d="M226.115,71.532a4.825,4.825,0,0,1,4.464-.637,3.7,3.7,0,0,1,1.426.817c.076.069.513.573.209.183a4.618,4.618,0,0,1,.4.63c1.341,2.478.784,6.212-.037,8.833a16.171,16.171,0,0,1-4.817,7.389c-1.888,1.584-5.371,2.944-7.92,1.857a2.481,2.481,0,0,0-3.284.861,2.417,2.417,0,0,0,.861,3.283,13.189,13.189,0,0,0,10.76-.568c3.095-1.437,5.559-4.391,7.169-7.33a21.946,21.946,0,0,0,2.778-9.642c.141-3.078-.4-6.524-2.646-8.806a9.55,9.55,0,0,0-11.79-1.015,2.466,2.466,0,0,0-.861,3.284,2.421,2.421,0,0,0,3.284.861Z"/>

<path class="c" d="M194.243,73.593c.737,2.108.5,7.032-3.53,7.6-5.343.17-5.852-5.752-4.16-8.609C187.939,70.246,192.232,69.132,194.243,73.593Z"/>

<path class="c" d="M162.071,73.883c.683,2.048.478,6.823-3.213,7.363-4.9.146-5.389-5.6-3.846-8.367C156.275,70.615,160.21,69.549,162.071,73.883Z"/>

<path class="c" d="M170.24,83.407a45.463,45.463,0,0,0-2.034,4.22l.242-.573a5.223,5.223,0,0,0-.605,2.169A3.129,3.129,0,0,0,169,91.679a4.432,4.432,0,0,0,1.929,1.008c.467.09.928.1,1.4.148a2.4,2.4,0,0,0,1.7-.7,2.4,2.4,0,0,0,0-3.394,2.75,2.75,0,0,0-1.7-.7c-.231-.024-.464-.021-.694-.051l.638.085a2.2,2.2,0,0,1-.478-.133l.573.242a2.5,2.5,0,0,1-.457-.269l.486.375a2.616,2.616,0,0,1-.3-.266l.375.485a.635.635,0,0,1-.082-.126l.242.574a1.046,1.046,0,0,1-.064-.213l.086.638a1.424,1.424,0,0,1,0-.313l-.086.638a2.993,2.993,0,0,1,.2-.648l-.241.574c.121-.278.238-.557.355-.836l-.241.573c.514-1.207,1.122-2.381,1.745-3.535a2.52,2.52,0,0,0,.242-1.849,2.4,2.4,0,0,0-4.387-.573Z"/>

<path class="c" d="M192.555,38.992c2.132,5.9,4.548,12.052,8.08,17.278,3.27,4.839,7.536,10.141,12.949,12.665a2.469,2.469,0,0,0,3.284-.861,2.419,2.419,0,0,0-.861-3.283c-4.794-2.236-8.547-6.914-11.416-11.225-3.21-4.823-5.448-10.424-7.407-15.85a2.462,2.462,0,0,0-2.952-1.676,2.421,2.421,0,0,0-1.677,2.952Z"/>

<path class="c" d="M193.068,36.408a52.052,52.052,0,0,1-12.051,10.673,68.013,68.013,0,0,1-7.4,4.155c-1.2.579-2.41,1.129-3.643,1.629a22.265,22.265,0,0,1-4.249,1.524H167q.687,2.127.778,1.055c.024-.156.048-.312.071-.469q.087-.581.166-1.164c.114-.828.222-1.657.318-2.488.179-1.543.315-3.09.424-4.639.153-2.18-2.674-3.026-4.1-1.7-4.266,3.98-8.571,7.918-12.978,11.742A116.63,116.63,0,0,1,139.1,66.8c-2.583,1.675-.179,5.832,2.423,4.144a123.491,123.491,0,0,0,13.2-10.515c4.53-3.919,8.951-7.961,13.33-12.047l-4.1-1.7c-.16,2.267-.373,4.532-.7,6.782-.192,1.31-.567,2.614.106,3.855a3.414,3.414,0,0,0,2.363,1.7A5.812,5.812,0,0,0,168.9,58.4q1.579-.579,3.131-1.23c1.93-.807,3.834-1.672,5.693-2.632A59.1,59.1,0,0,0,196.462,39.8a2.47,2.47,0,0,0,0-3.394,2.419,2.419,0,0,0-3.394,0Z"/>

<path class="c" d="M213.855,103.406a44.131,44.131,0,0,0,.96,4.375,12.491,12.491,0,0,0,3.307,5.322,17.367,17.367,0,0,0,5.281,3.368c2.134.942,4.316,1.767,6.507,2.565a2.412,2.412,0,0,0,2.952-1.676,2.463,2.463,0,0,0-1.676-2.953c-.972-.354-1.943-.712-2.909-1.084q-.688-.267-1.374-.543-.338-.137-.674-.277c.384.161-.224-.1-.3-.13a26.529,26.529,0,0,1-2.467-1.206,12.942,12.942,0,0,1-1.137-.733c.359.256-.156-.129-.225-.188q-.3-.258-.586-.537a10.571,10.571,0,0,1-.987-1.095c.247.321-.111-.176-.158-.246q-.189-.282-.359-.575t-.322-.6c-.067-.134-.131-.269-.193-.406l.16.372a3.587,3.587,0,0,0-.278-.893c-.374-1.361-.644-2.754-.895-4.141a2.413,2.413,0,0,0-2.953-1.677,2.465,2.465,0,0,0-1.676,2.953Z"/>

<path class="c" d="M172.118,104.344c.089-.045.179-.087.267-.132.344-.174-.147.058-.147.059a3.651,3.651,0,0,1,.608-.215,11.9,11.9,0,0,1,1.416-.35c.116-.021.234-.037.351-.06.337-.067-.448.046-.1.011.242-.024.483-.052.726-.069a15.241,15.241,0,0,1,1.556-.032q.361.012.723.041c.118.01.236.023.355.035.347.033-.015.048-.115-.018a2.549,2.549,0,0,0,.673.124c.215.047.429.1.64.162s.4.126.6.2c.06.023.555.22.25.095-.275-.113.128.059.175.08a17.03,17.03,0,0,1,1.618.846,2.4,2.4,0,1,0,2.423-4.144,15.156,15.156,0,0,0-7.34-2.22,14.774,14.774,0,0,0-7.1,1.443,2.417,2.417,0,0,0-.861,3.284,2.459,2.459,0,0,0,3.284.861Z"/>

<path class="c" d="M200.265,64.286c-.186-.009-.372-.025-.557-.05l.638.086a6.27,6.27,0,0,1-1.48-.406l.573.242a6.4,6.4,0,0,1-1.389-.8l.486.376a6.124,6.124,0,0,1-1.042-1.031,2.4,2.4,0,0,0-1.7-.7,2.443,2.443,0,0,0-1.7.7,2.414,2.414,0,0,0-.7,1.7l.086.638a2.387,2.387,0,0,0,.617,1.059,5.986,5.986,0,0,0,.932.944,8.975,8.975,0,0,0,1.571,1.076,8.88,8.88,0,0,0,3.662.974,2.4,2.4,0,0,0,1.7-4.1,2.6,2.6,0,0,0-1.7-.7Z"/>

<path class="d" d="M285.579,191.316c-1.073-4.33-2.216-8.5-3.337-12.648-2.222-8.224-7.7-29.207-15.555-40.545-8.946-12.914-21.6-17.663-37.544-22.237-11.172,10.735-26.817,20.681-42.761,21.61-4.931.287-10.022-.192-14.471-2.339S163.734,129,162.8,124.152c0,0-.333-1.731-.852-4.228-.515.171-.917.316-1.153.421-7.55,2.6-15.89,6.61-20,11.38-6.28,7.29-9.55,17.24-10.89,23.74-1.04,5.11-6.22,25.2-8.43,38.97a25.738,25.738,0,0,0,.77,12.79l.277.646c18.2.083,34.544.146,44.2.211a8.787,8.787,0,0,1,8.328,6.14c3.011,9.521,7.917,25.11,12.851,40.818,3.127-4.008,5.961-8.426,9.82-11.816a18.32,18.32,0,0,1,10.235-4.814,25.226,25.226,0,0,1,4.748.161q4.507.46,8.982,1.174c5.421.864,11.493,1.878,15.833-1.789,6.675,5.9,12.614,18.626,14.871,28.983,7.883-2.972,19.894-8.281,27.66-14.515a28.76,28.76,0,0,0,10-14.869c.869-2.779,1.394-9.653,1.305-12.722-.111-3.834-1.827-14.194-2.75-19.291C287.743,200.529,286.7,195.837,285.579,191.316Z"/>

<path class="a" d="M227.948,271.389c-4.153,3.339-7.29,7.869-11.591,12.351-.618.644-3.15,2.333-5.1.827-1.284-.989-1.469-3.476-1-4.491,2.528-5.526,3.564-7.2,5.442-11.07-2.289,2.413-4.075,4.434-6.786,7.175l-2.763,2.793q-4.075,4.121-8.15,8.241c-2.9-9.264-6.5-20.752-10.093-32.175,3.127-4.009,5.961-8.426,9.819-11.816a18.32,18.32,0,0,1,10.235-4.814,25.226,25.226,0,0,1,4.748.161q4.507.46,8.982,1.174c5.423.864,11.5,1.878,15.836-1.792,5.621,4.974,10.722,14.79,13.539,23.952a22.3,22.3,0,0,0-2.914,1.7c-.627.429-2.644,2.217-3.312,2.579a46,46,0,0,1-16.549,5.114"/>

<path class="c" d="M288.131,248.017q9.887,0,19.771-.024l31.024-.039q3.88,0,7.761-.008c3.088,0,3.094-4.8,0-4.8q-10.14,0-20.28.024l-30.882.038q-3.7,0-7.394.009c-3.088,0-3.093,4.8,0,4.8Z"/>

<path class="c" d="M2.318,248.025q17.78-.007,35.557-.07,2.814,0,5.628-.009c3.088,0,3.093-4.8,0-4.8-11.988,0-23.976.046-35.963.069q-2.611.006-5.222.01c-3.088,0-3.093,4.8,0,4.8Z"/>

<path class="c" d="M236.969,232.412c4.926-2.09,9.661-4.524,14.473-6.855a2.413,2.413,0,0,0,.861-3.284,2.463,2.463,0,0,0-3.284-.861c-4.812,2.331-9.546,4.766-14.473,6.855a2.4,2.4,0,0,0-.861,3.284,2.479,2.479,0,0,0,3.284.861Z"/>

<path class="c" d="M235.385,236.575c-3.409,2.177-7.641,1.692-11.453,1.11-4.716-.72-9.536-1.662-14.317-1.728-9.748-.136-16.148,7.637-21.445,14.767a2.415,2.415,0,0,0,.861,3.283,2.456,2.456,0,0,0,3.284-.861c2.5-3.366,5.094-6.93,8.553-9.386a16.559,16.559,0,0,1,5.31-2.608,17.516,17.516,0,0,1,6.286-.2c4.454.442,8.845,1.278,13.287,1.789,4.128.475,8.457.283,12.057-2.016,2.6-1.657.191-5.813-2.423-4.145Z"/>

<path class="c" d="M198.327,254.05l-7.34,7.277a2.4,2.4,0,0,0,3.394,3.394l7.34-7.277a2.4,2.4,0,0,0-3.394-3.394Z"/>

<path class="c" d="M199.006,274.933c3.7-4.326,7.756-8.348,11.8-12.348a2.4,2.4,0,0,0-3.394-3.394c-4.048,4-8.1,8.022-11.8,12.348a2.4,2.4,0,0,0,3.394,3.394Z"/>

<path class="c" d="M204.367,284.18c2.726-2.755,5.487-5.481,8.162-8.287,2.363-2.479,4.653-5.024,7.06-7.462a2.4,2.4,0,1,0-3.4-3.394c-2.406,2.438-4.7,4.983-7.059,7.462-2.675,2.8-5.436,5.531-8.162,8.287a2.4,2.4,0,0,0,3.394,3.394Z"/>

<path class="c" d="M228.283,273.7a52.421,52.421,0,0,0,14.246-3.738,22.124,22.124,0,0,0,5.34-3.073c.33-.267.655-.538.983-.806.161-.131.321-.263.484-.393.309-.246-.269.19-.039.032a25.482,25.482,0,0,1,2.99-1.752,2.4,2.4,0,1,0-2.423-4.145,24.94,24.94,0,0,0-4.618,3.038,16.89,16.89,0,0,1-1.429,1.129,22.1,22.1,0,0,1-2.93,1.481,44.369,44.369,0,0,1-12.6,3.427,2.478,2.478,0,0,0-2.4,2.4,2.413,2.413,0,0,0,2.4,2.4Z"/>

<path class="c" d="M234.948,238.922c3.867,2.885,6.682,7.51,8.922,11.766a68.512,68.512,0,0,1,6,16c.715,3,5.345,1.732,4.628-1.276a73.444,73.444,0,0,0-6.674-17.5c-2.64-4.942-5.923-9.753-10.456-13.135a2.415,2.415,0,0,0-3.284.861,2.457,2.457,0,0,0,.861,3.283Z"/>

<path class="c" d="M212.9,269.255c-.981,1.958-2,3.9-2.96,5.866a40.722,40.722,0,0,0-2.032,4.384,6.955,6.955,0,0,0-.033,3.9,5.481,5.481,0,0,0,7.5,3.709c2.884-1.147,4.784-3.93,6.747-6.209a61.12,61.12,0,0,1,7.526-7.817,2.417,2.417,0,0,0,0-3.394,2.456,2.456,0,0,0-3.394,0c-4.423,3.6-7.649,8.356-11.631,12.391-.062.063-.405.325-.136.13.288-.209-.313.184-.38.222-.112.064-.57.27-.219.133-.14.055-.712.219-.583.2a.585.585,0,0,1-.609-.109c.232.136-.134-.229.081.1a3.576,3.576,0,0,1-.211-.371c.111.221.045.153,0-.038-.05-.217-.116-.428-.154-.648.079.455.016-.171.009-.325-.005-.1.02-.2.011-.3,0,.053-.119.4-.026.178.032-.074.031-.17.057-.248.119-.352-.109.215.075-.177.532-1.13,1.055-2.264,1.6-3.386.943-1.932,1.944-3.834,2.907-5.755a2.46,2.46,0,0,0-.861-3.284,2.423,2.423,0,0,0-3.284.861Z"/>

<path class="c" d="M198.86,305.038c7.83-3.269,15.592-6.7,23.358-10.12q13.451-5.918,26.866-11.912c3-1.339,5.993-2.674,8.974-4.043a2.418,2.418,0,0,0,.861-3.283,2.455,2.455,0,0,0-3.283-.861c-15.65,7.186-31.447,14.072-47.236,20.944q-3.173,1.382-6.351,2.749-1.328.57-2.658,1.136c-.2.084-1.359.575-.761.323l-1.046.439a2.48,2.48,0,0,0-1.676,2.952,2.414,2.414,0,0,0,2.952,1.676Z"/>

<path class="a" d="M40.551,207.242c30.788.512,101.072.672,126.168.84a8.787,8.787,0,0,1,8.328,6.14c5.972,18.886,19.4,61.641,25.719,81.855a5.633,5.633,0,0,1-5.4,7.317c-27.195-.1-100.463-.36-128.632-.93a5.621,5.621,0,0,1-5.264-3.963c-5.555-17.964-19.819-63.232-26.391-83.911A5.639,5.639,0,0,1,40.551,207.242Z"/>

<path class="c" d="M40.551,209.642c14.38.238,28.762.331,43.143.423q25.2.163,50.4.257,10.6.047,21.2.1,4.14.019,8.28.044c3.068.018,6.221-.168,8.25,2.621a14.961,14.961,0,0,1,1.752,4.443q.708,2.238,1.414,4.479,1.686,5.345,3.369,10.692,3.911,12.424,7.813,24.851,3.846,12.245,7.685,24.491,1.62,5.165,3.236,10.329c.776,2.48,3.053,6.784-.324,8.328-1.138.52-2.6.294-3.829.289l-3.975-.014-9.171-.034q-10.962-.042-21.926-.092-24.94-.116-49.881-.3c-13.491-.105-26.983-.206-40.472-.469-1.5-.029-2.927-.386-3.616-1.89a31.941,31.941,0,0,1-1.2-3.821q-1.446-4.653-2.9-9.3-3.63-11.616-7.285-23.226-7.175-22.82-14.4-45.621c-.421-1.327-1.2-2.86-.773-4.241a3.289,3.289,0,0,1,3.211-2.334c3.086-.04,3.095-4.84,0-4.8a8.135,8.135,0,0,0-7.955,9.717,46.917,46.917,0,0,0,1.424,4.621q.786,2.478,1.571,4.956,3.755,11.855,7.491,23.714,7.405,23.494,14.747,47.008c1.1,3.547,1.849,7.463,5.562,9.211,2.807,1.321,6.541.858,9.591.9q10.267.162,20.537.249,25.368.246,50.736.355,22.467.117,44.935.194l4.052.015a13.22,13.22,0,0,0,5.08-.562,8.142,8.142,0,0,0,4.779-5.2c.652-2.148.116-4.154-.528-6.212q-3.467-11.083-6.945-22.163-7.822-24.933-15.674-49.858c-1.014-3.215-1.781-6.721-3.215-9.777-2.032-4.329-6.346-6.313-10.931-6.342q-8.968-.058-17.936-.093-24.9-.112-49.8-.233c-16.191-.088-32.383-.183-48.574-.381q-4.476-.054-8.952-.127C37.461,204.791,37.46,209.591,40.551,209.642Z"/>

<path class="c" d="M124.559,206.587c-2.388-6.554-.471-13.784.855-20.364,1.387-6.881,2.974-13.719,4.588-20.55,1.107-4.684,2.008-9.468,3.335-14.094,1.944-6.78,5-14.074,10.064-19.133a36.516,36.516,0,0,1,10.332-6.681,87.013,87.013,0,0,1,12.12-4.546c2.949-.891,1.692-5.525-1.276-4.628-7.742,2.34-15.694,5.347-22.135,10.351-6.19,4.81-9.989,12.4-12.55,19.656-1.755,4.971-2.714,10.175-3.926,15.295-1.639,6.924-3.272,13.851-4.722,20.818-.874,4.2-1.765,8.43-2.312,12.688a26.853,26.853,0,0,0,1,12.464,2.464,2.464,0,0,0,2.953,1.676,2.419,2.419,0,0,0,1.676-2.952Z"/>

<path class="c" d="M230.049,118.647c12.329,3.609,24.6,8.16,32.918,18.466,3.826,4.741,6.472,10.424,8.708,16.051,2.319,5.835,4.233,11.827,5.968,17.858A356.619,356.619,0,0,1,286.956,210c1.77,10.444,3.9,22.008-1.208,31.9-3.233,6.264-8.944,10.373-14.909,13.829a127.166,127.166,0,0,1-18.045,8.5q-1.809.7-3.636,1.345a2.462,2.462,0,0,0-1.677,2.953,2.422,2.422,0,0,0,2.953,1.676,148.941,148.941,0,0,0,18.124-7.77c6.558-3.359,13.424-7.347,18.087-13.18a32,32,0,0,0,5.013-8.981,33.969,33.969,0,0,0,1.768-8.615,46,46,0,0,0,.256-8.06c-.233-2.985-.689-5.958-1.138-8.917-1.084-7.14-2.336-14.265-4-21.3-1.567-6.63-3.383-13.2-5.191-19.773-1.63-5.926-3.4-11.819-5.493-17.6a87.961,87.961,0,0,0-8.413-18.063,47.408,47.408,0,0,0-14.272-14.131,79.065,79.065,0,0,0-18.611-8.2c-1.74-.558-3.49-1.084-5.243-1.6-2.971-.869-4.239,3.762-1.276,4.629Z"/>

<path class="c" d="M160.486,124.79a18.293,18.293,0,0,0,8.584,11.549c4.745,2.908,10.521,3.771,16,3.614,10.943-.312,21.457-4.585,30.6-10.4A98.32,98.32,0,0,0,230.089,118.3c2.259-2.117-1.141-5.506-3.4-3.394a82.831,82.831,0,0,1-24.28,16.252,50.379,50.379,0,0,1-13.965,3.769c-4.829.514-9.954.4-14.506-1.472-4.3-1.766-7.866-5.305-8.828-9.939-.628-3.023-5.256-1.744-4.629,1.276Z"/>

<path class="a" d="M176.622,146a6.23,6.23,0,0,0-1.582-.977l.917-2.315a4.767,4.767,0,0,0-1.027-4.439,4.935,4.935,0,0,0-3.427-1.389l.991-2.073a5.443,5.443,0,0,0,0-3.733,4.846,4.846,0,0,0-1.189-1.646,5.938,5.938,0,0,0-3.093-.4,51.515,51.515,0,0,0-12.7,2.709,28.879,28.879,0,0,1,1.511-3.13,8.509,8.509,0,0,1,3.51-2.78c2.49-1.39,5.04-2.9,7.42-4.47a3.1,3.1,0,0,0,.99-4.43,3.327,3.327,0,0,0-2.34-1.71c-2.2-.531-5,.33-7.515,1.33-2.48.99-6.155,2.33-8.155,4.2-2.39,2.23-3.33,5.22-4.43,8.14-.61,1.61-1.9,6.18-2.43,7.83l-.65,3.844a7.842,7.842,0,0,0,.141,3.27q2.4,9.278,4.782,18.566a66.188,66.188,0,0,1,1.65,7.74l.047,2.591c5.644.577,13.28,1.4,19.185,2.187.167-.915.292-1.623.308-1.768.17-1.39.32-3.72.38-5.11.071-1.8.064-4.671.05-7.456l.359.424a3.525,3.525,0,0,0,4.763,2.261,4.937,4.937,0,0,0,2.352-3.128,18.832,18.832,0,0,0,.563-4.181c.1-2.393.087-4.07.094-6.619A4.314,4.314,0,0,0,176.622,146Z"/>

<path class="c" d="M146.389,137.363c.827-2.6,1.492-5.264,2.43-7.83,1.188-3.251,2.351-6.447,5.5-8.25a36.691,36.691,0,0,1,4.789-2.169,17.819,17.819,0,0,1,5.745-1.643c.884-.03,2.628.31,2.214,1.491a4.588,4.588,0,0,1-1.084.824q-1.344.867-2.715,1.691c-1.99,1.2-4.174,2.2-6.053,3.563-1.939,1.412-2.828,3.363-3.776,5.494a2.475,2.475,0,0,0,.861,3.283,2.418,2.418,0,0,0,3.284-.861c.411-.923.807-1.848,1.289-2.737a5,5,0,0,1,2.209-1.945c2.208-1.25,4.412-2.5,6.557-3.854,2.1-1.328,4.107-2.739,4.228-5.458a6.187,6.187,0,0,0-3.066-5.454c-4.279-2.389-9.92.469-13.935,2.188a19.816,19.816,0,0,0-5.508,3.251,15.746,15.746,0,0,0-3.795,5.753c-1.566,3.706-2.59,7.561-3.806,11.387-.937,2.951,3.7,4.214,4.629,1.276Z"/>

<path class="c" d="M143,174.441c8.72.81,17.928,1.76,26.281,2.887,2.124.287,4.253.582,6.354,1.009l-1.762-2.314a234.847,234.847,0,0,1-3.318,28.113,2.465,2.465,0,0,0,1.676,2.953,2.423,2.423,0,0,0,2.953-1.677,245.817,245.817,0,0,0,3.489-29.389,2.408,2.408,0,0,0-1.762-2.314c-4.406-.9-8.915-1.37-13.376-1.9-5.1-.6-10.2-1.147-15.308-1.66q-2.613-.263-5.227-.51a2.418,2.418,0,0,0-2.4,2.4,2.451,2.451,0,0,0,2.4,2.4Z"/>

<path class="c" d="M148.53,137.716a45.527,45.527,0,0,1,13.683-5.37,34.06,34.06,0,0,1,6.8-.946,10.263,10.263,0,0,0,1.216.136c-.263.067-.247-.289-.318-.138a5.789,5.789,0,0,0,.372.6,3.044,3.044,0,0,1-.1,2.179,2.414,2.414,0,0,0,1.676,2.952,2.458,2.458,0,0,0,2.952-1.676c1.058-2.6.213-6.556-2.292-8.089-2.45-1.5-6.142-.567-8.762-.157a50.123,50.123,0,0,0-17.647,6.368c-2.664,1.561-.251,5.711,2.423,4.145Z"/>

<path class="c" d="M155.869,142.687a54.951,54.951,0,0,1,12.587-3.192c1.284-.211,3.07-.456,4.158.028a1.657,1.657,0,0,1,.88.838c.087.19.246.8.244.786a1.213,1.213,0,0,1-.1.927,2.4,2.4,0,0,0,4.629,1.276,7.065,7.065,0,0,0-1.644-6.774,8.267,8.267,0,0,0-6.685-2.072,60.526,60.526,0,0,0-7.6,1.236,41.6,41.6,0,0,0-7.751,2.318,2.481,2.481,0,0,0-1.676,2.953,2.415,2.415,0,0,0,2.952,1.676Z"/>

<path class="c" d="M158.965,149.478c3.405-.74,6.815-1.453,10.248-2.052a14.086,14.086,0,0,1,4.02-.461,3.57,3.57,0,0,1,1.687.733,1.556,1.556,0,0,1,.6,1.006,18.136,18.136,0,0,1,.16,4.436,40.6,40.6,0,0,1-.223,4.769,5.305,5.305,0,0,1-1.093,3c-.429.354-.708.288-1.214.125a1.39,1.39,0,0,1-.512-.656,2.471,2.471,0,0,0-2.952-1.676,2.417,2.417,0,0,0-1.676,2.952,6.2,6.2,0,0,0,3.6,3.916,5.737,5.737,0,0,0,5.4-.69c3.019-2.235,3.3-6.207,3.419-9.663.06-1.746.1-3.5.064-5.249a8.458,8.458,0,0,0-1.28-4.6,7.766,7.766,0,0,0-4.42-2.961,12.98,12.98,0,0,0-5.46.156c-3.905.653-7.781,1.451-11.649,2.291a2.4,2.4,0,0,0,1.276,4.629Z"/>

<path class="c" d="M171.622,175.153a52.414,52.414,0,0,0,.753-10.524c.014-3.355-.053-6.71-.017-10.064.033-3.09-4.767-3.092-4.8,0-.035,3.263.027,6.527.018,9.79a47.494,47.494,0,0,1-.582,9.522,2.457,2.457,0,0,0,1.676,2.952,2.424,2.424,0,0,0,2.952-1.676Z"/>

<path class="c" d="M146.107,133.573a10.671,10.671,0,0,0-4.993,6.765c-.594,3.372.875,6.977,1.706,10.205q1.3,5.07,2.606,10.14a89.889,89.889,0,0,1,2.258,10.1,2.414,2.414,0,0,0,2.952,1.676,2.464,2.464,0,0,0,1.676-2.952c-.83-6.042-2.742-11.986-4.258-17.883-.74-2.881-1.764-5.824-2.219-8.765a5.113,5.113,0,0,1,2.694-5.142c2.6-1.65.2-5.806-2.422-4.144Z"/>

<path class="c" d="M240.152,187.193l7.317,26.786c.813,2.976,5.445,1.713,4.629-1.276l-7.318-26.786c-.813-2.976-5.445-1.713-4.628,1.276Z"/>

<path class="c" d="M288.845,94.805c3.163.925,6.738,1.787,9.97.655a8.525,8.525,0,0,0,5.579-5.943c1.45-6.747-7.276-10.054-12.472-10.849-1.434-.219-3.042-.509-4.4.177a3.572,3.572,0,0,0-1.895,4.187c.863,3.11,4.666,4.317,7.364,5.248,5.1,1.763,11.371,2.809,16.389.214a8.171,8.171,0,0,0,4.323-5.485,9.717,9.717,0,0,0-3.129-8.754c-2.207-2.1-5.029-3.437-7.733-4.771a45.476,45.476,0,0,0-7.886-3.187,29.279,29.279,0,0,0-7.94-1.021c-2.869.015-7.367.07-7.5,3.964-.111,3.166,2.968,4.959,5.373,6.258a64.289,64.289,0,0,0,7.7,3.548,60.464,60.464,0,0,0,16.321,3.413,14.42,14.42,0,0,0,8.312-1.345,8.692,8.692,0,0,0,4.633-6.984c.335-5.772-5.736-10.1-10.108-12.637a74.538,74.538,0,0,0-16.573-7.063c-4.272-1.226-10.253-2.7-14.356-.188-1.645,1.006-3.043,2.952-2.5,4.949a6.348,6.348,0,0,0,2.646,3.265c2.827,2.056,6.405,3.212,9.7,4.271a129.488,129.488,0,0,0,13.863,3.534A135.758,135.758,0,0,0,318.9,72.484c4.654.435,10.839-2.323,11.639-7.407.4-2.58-1.011-4.872-2.575-6.8a25.206,25.206,0,0,0-5.651-5.025,59.526,59.526,0,0,0-8.357-4.3,69.542,69.542,0,0,0-9.1-3.456,47.911,47.911,0,0,0-8.908-1.691,2.418,2.418,0,0,0-2.4,2.4,2.451,2.451,0,0,0,2.4,2.4,48.176,48.176,0,0,1,14.114,3.845c4.2,1.78,8.784,3.718,12.2,6.813a12.632,12.632,0,0,1,3.434,4.267,3.927,3.927,0,0,0,.164.649c-.078-.222,0-.025-.055.2a3.332,3.332,0,0,1-1.136,1.656c-2.67,2.286-6.1,1.676-9.282,1.247a138.055,138.055,0,0,1-23.015-5.039,36.811,36.811,0,0,1-7.772-3.14c-.245-.141-.486-.288-.722-.443-.072-.047-.67-.479-.379-.253s-.25-.22-.333-.3-.5-.586-.247-.24c.259.363-.066-.13-.111-.236,0-.009.227.619.136.29-.06-.216.048-.229.035.356.006-.3-.038-.425-.161.628a1.472,1.472,0,0,1,.212-.363c-.233.164.2-.146.2-.149a3.459,3.459,0,0,1,1.439-.506,12.406,12.406,0,0,1,2.279-.1,27.351,27.351,0,0,1,5.979,1.015,71.254,71.254,0,0,1,13.339,5.214c3.568,1.772,7.55,3.863,9.8,7.271,1.08,1.635,1.428,3.374-.121,4.873A6.893,6.893,0,0,1,311.27,77.8a48.319,48.319,0,0,1-13.219-2A54.206,54.206,0,0,1,286,70.626a7.1,7.1,0,0,1-1.053-.654c-.027-.023-.631-.679-.633-.679l0,.041a1.309,1.309,0,0,1-.461.9c.036.028.147-.034.178-.016.324.194,1.776-.116,2.171-.127a24.971,24.971,0,0,1,6.118.5,44.236,44.236,0,0,1,12.111,5.121c1.88,1.071,3.817,2.421,4.483,4.589a3.116,3.116,0,0,1-1.178,3.6c-3.117,2.228-7.853,1.342-11.277.424a31.627,31.627,0,0,1-3.465-1.142q-.772-.306-1.519-.668c-.069-.034-1.3-.86-1.275-.866-.108.026-.152,1.122-.279,1.283-.513.649-.765.171-.235.286.445.1.94.078,1.394.151a20.515,20.515,0,0,1,3.753.987c1.51.547,4.35,1.576,4.86,3.314.442,1.5-1.231,2.86-2.485,3.276-2.268.752-4.895-.126-7.079-.764-2.971-.869-4.24,3.762-1.276,4.628Z"/>

</g>

</svg>