<?xml version="1.0" encoding="utf-8"?>
<!-- Uploaded to: SVG Repo, www.svgrepo.com, Generator: SVG Repo Mixer Tools -->
<svg width="800px" height="800px" viewBox="-79.59 0 367.02 367.02" xmlns="http://www.w3.org/2000/svg"><defs><style>.a{fill:#b5886a;}.b{fill:#211715;}.c{fill:#ffffff;}.d{fill:#f4b3b3;}.e{fill:#f3736f;}</style></defs><path class="a" d="M67.039,156.235c-7.6,1.99-13.221,3.849-13.221,3.849-14.776,3.135-24.8-7.009-24.714-16.259a95.111,95.111,0,0,1,2.927-20.486c2.276-8.129,3.9-22.437,3.9-42.272C34.958,51.8,42.657,30.578,54.793,18.959c7.316-7,23.8-16.546,42.325-16.546a67.236,67.236,0,0,1,26.887,5.15l2.409.976,4.885,2.653c4.359,2.366,5.522,4.168,9.526,8.031,9.262,8.935,15.7,25.011,16.723,39.407.3,4.153.976,14.958.321,22.437.329,24.713,4.885,38.545,7.237,45.354a45.226,45.226,0,0,1,2.856,15.481c.083,9.25-11.413,21.228-24.629,16.487,0,0-31.015-6.509-46.714-6.892C88.068,151.289,76.133,153.855,67.039,156.235Z"/><path class="b" d="M155.469,81.067c.191,13.16,1.521,26.446,5.14,39.137,1.326,4.651,3.2,9.157,4.175,13.9a37.72,37.72,0,0,1,.717,5.732,17.723,17.723,0,0,1-.149,4.184,15.466,15.466,0,0,1-3.359,6.715c-4.5,5.359-11.329,7.665-18.022,5.339-2.924-1.016-4.181,3.62-1.276,4.629a20.566,20.566,0,0,0,19.886-3.814,20.3,20.3,0,0,0,7.75-16.377A47.936,47.936,0,0,0,168.15,128c-.636-2.047-1.377-4.06-2.021-6.1a116.721,116.721,0,0,1-3.545-14.505,162.728,162.728,0,0,1-2.315-26.325c-.044-3.086-4.845-3.095-4.8,0Z"/><path class="c" d="M50.945,77.594a6.987,6.987,0,0,0-5.589-1.636,6.6,6.6,0,0,0-4.743,3.153,9.33,9.33,0,0,0-.977,3.752,27.945,27.945,0,0,0,2.85,14.814,17.775,17.775,0,0,0,4.593,6.029c1.554,1.239,3.748,2.641,6.535,1.945l.522-.133A47.88,47.88,0,0,0,63.4,123.944a45.254,45.254,0,0,0,15.1,12.212,60.545,60.545,0,0,1-.922,7.733c-.564,3.22-.387,6.1-4.864,7.715-.3.107-14.456,6.73-15.318,7.024l-.686.234c7.4,9.752,25.065,16.863,41.732,16.863,16.371,0,32.889-7.778,40.874-17.394l-.956-.393c-.453-.187-13.15-6.227-13.446-6.334-4.477-1.617-4.3-4.5-4.864-7.715a65.149,65.149,0,0,1-.951-8.6c11.271-5.525,20.255-20.965,21.853-25.3.292-.887.941-2.7,1.436-4.777,2-.294,4.662-.293,6.18-1.5a17.775,17.775,0,0,0,4.593-6.029,27.935,27.935,0,0,0,2.849-14.814,9.313,9.313,0,0,0-.976-3.752,6.6,6.6,0,0,0-4.743-3.153,6.987,6.987,0,0,0-5.589,1.636C136.861,75.2,127.409,62.671,124.387,57c-2.113-3.963-4.412-12.556-6.233-18.619C109.491,49.667,98.482,57.66,84.81,61.565c-3.251.967-.187-9.345.39-14.218C76.558,55.836,67.112,64.8,58.347,71.966Z"/><path class="b" d="M140.614,100.789a23.609,23.609,0,0,1-1.144,5.984c-.211.7-.443,1.4-.676,2.093q-.1.3-.2.589c-.027.076-.062.15-.089.227-.151.441.183-.41.059-.137a51.081,51.081,0,0,1-3.092,5.742,57.348,57.348,0,0,1-12.323,14.551,22.8,22.8,0,0,1-9.164,4.743c-3.008.7-1.735,5.325,1.276,4.629,7.044-1.628,12.906-6.771,17.505-12.118a63.022,63.022,0,0,0,9.792-14.783,31.287,31.287,0,0,0,2.858-11.52c.108-3.09-4.693-3.086-4.8,0Z"/><path class="b" d="M52.642,75.9a9.456,9.456,0,0,0-9.727-1.721C39.17,75.709,37.589,79,37.236,82.863c-.662,7.261,1.583,15.526,6.528,21,2.7,2.994,6.395,4.976,10.488,4.1,3.019-.645,1.742-5.273-1.276-4.629-2.652.567-5.134-1.841-6.58-3.789a23.967,23.967,0,0,1-4-9.526,24.548,24.548,0,0,1-.458-5.147c.019-1.511,0-3.38.838-4.7a4.466,4.466,0,0,1,6.472-.88,2.464,2.464,0,0,0,3.394,0,2.42,2.42,0,0,0,0-3.394Z"/><path class="b" d="M50.812,101.781a55.807,55.807,0,0,0,6.7,18,50.642,50.642,0,0,0,15.109,15.8,35.683,35.683,0,0,0,10.294,4.748c2.983.82,4.256-3.809,1.276-4.628-7.908-2.174-14.448-7.7-19.522-13.98-4.924-6.093-7.723-13.6-9.224-21.217a2.424,2.424,0,0,0-2.952-1.676,2.45,2.45,0,0,0-1.677,2.952Z"/><path class="b" d="M116.005,39.575c1.109,3.732,2.156,7.484,3.366,11.185a43.471,43.471,0,0,0,3.652,8.71A63.657,63.657,0,0,0,135.093,74.3a25.274,25.274,0,0,0,8.966,5.606c2.95.938,4.213-3.7,1.276-4.629-5.165-1.642-9.715-6.851-13.161-11.1a61.2,61.2,0,0,1-4.689-6.607,34.715,34.715,0,0,1-3.178-7.163c-1.347-4-2.472-8.068-3.674-12.112-.878-2.954-5.512-1.7-4.628,1.276Z"/><path class="b" d="M116.435,36.732a65.763,65.763,0,0,1-17.8,16.232,58.192,58.192,0,0,1-10.7,5.087q-1.486.525-3,.977a5.074,5.074,0,0,0-.763.223c-.2.1-.359-.09.227-.022a1.782,1.782,0,0,1,1.332.728c.35.449.036.241.009-.117.045.6.005-.1,0-.306a14.569,14.569,0,0,1,.109-1.925c.343-3.16,1.329-6.855,1.752-10.262.268-2.166-2.744-3.025-4.1-1.7C74.84,54.155,66.043,62.567,56.65,70.269a2.417,2.417,0,0,0,0,3.394,2.454,2.454,0,0,0,3.394,0c9.393-7.7,18.19-16.113,26.853-24.618l-4.1-1.7c-.061.488-.032.162-.009.07-.051.206-.066.427-.1.637-.068.41-.141.82-.216,1.23-.165.893-.341,1.783-.513,2.675-.353,1.829-.689,3.663-.9,5.515-.32,2.828.182,7.267,4.171,6.453A37.635,37.635,0,0,0,91.4,61.858a66.993,66.993,0,0,0,6.512-2.97,64.617,64.617,0,0,0,11.207-7.555,71.193,71.193,0,0,0,10.713-11.207,2.481,2.481,0,0,0,0-3.394,2.415,2.415,0,0,0-3.394,0Z"/><path class="b" d="M160.269,81.067a122.242,122.242,0,0,0,.069-15.795,107.3,107.3,0,0,0-1.307-13.921c-1.9-10.7-6.169-21.322-12.946-29.872a79.85,79.85,0,0,0-6.017-6.393,33.66,33.66,0,0,0-6.581-5.415c-2.657-1.591-5.073,2.557-2.423,4.144a25.96,25.96,0,0,1,5.089,4.139c1.812,1.822,3.709,3.576,5.387,5.524A52.855,52.855,0,0,1,149.4,36.25a69.144,69.144,0,0,1,4.7,14.8,88.191,88.191,0,0,1,1.376,13.011,126.638,126.638,0,0,1-.011,17,2.419,2.419,0,0,0,2.4,2.4,2.449,2.449,0,0,0,2.4-2.4Z"/><path class="b" d="M33.531,81.066c0,7.731-.228,15.469-.883,23.175a114.078,114.078,0,0,1-2.272,15.835c-.571,2.5-1.29,4.952-1.784,7.47-.689,3.515-1.2,7.073-1.551,10.637a32.006,32.006,0,0,0-.047,8.727,17.615,17.615,0,0,0,3.179,7.227,22.656,22.656,0,0,0,18.839,8.916c3.086-.049,3.1-4.849,0-4.8-5.568.088-11.1-1.962-14.608-6.429a13.951,13.951,0,0,1-2.756-6.054,7.69,7.69,0,0,1-.142-1.4c-.022-.648,0-1.3.03-1.946.059-1.478.176-2.954.324-4.425.321-3.2.8-6.386,1.433-9.539.48-2.393,1.168-4.727,1.711-7.1A120.047,120.047,0,0,0,37.318,105.7c.76-8.186,1.008-16.415,1.013-24.633,0-3.088-4.8-3.093-4.8,0Z"/><path class="b" d="M76.052,136.9a60.894,60.894,0,0,1-.756,6.138,35.667,35.667,0,0,1-.666,3.722c-.042.15-.312.847-.14.476a5.611,5.611,0,0,1-.383.686c-.207.321.211-.229-.048.069-.08.091-.162.18-.248.265a2.178,2.178,0,0,1-.684.516,22.144,22.144,0,0,1-2.046.944c-3.548,1.614-7.072,3.281-10.613,4.91q-1.371.63-2.747,1.255c-.327.147-.655.291-.982.438-.607.273.554-.2.014-.007a2.462,2.462,0,0,0-1.677,2.952,2.421,2.421,0,0,0,2.953,1.676c1.411-.5,2.775-1.212,4.135-1.836q3.265-1.5,6.524-3.014,2.406-1.116,4.815-2.229a2.015,2.015,0,0,0,.387-.174c-.015.011-.905.361-.375.166.261-.1.516-.207.772-.317a9.889,9.889,0,0,0,1.389-.694,8.1,8.1,0,0,0,3.291-3.961,19.6,19.6,0,0,0,.879-4.109c.431-2.615.826-5.226,1.006-7.872a2.4,2.4,0,0,0-4.8,0Z"/><path class="b" d="M116.713,135.715a82.9,82.9,0,0,0,1.429,11.383,8.744,8.744,0,0,0,5.785,6.69c.906.36-.614-.307.028,0,.236.114.476.221.713.332q1.123.526,2.244,1.057,3.037,1.435,6.074,2.874c1.382.654,2.752,1.356,4.158,1.955a2.482,2.482,0,0,0,3.284-.861,2.417,2.417,0,0,0-.861-3.284c-2.983-1.271-5.884-2.772-8.815-4.158-1.422-.673-2.839-1.361-4.271-2.012a16.837,16.837,0,0,1-2.155-1.02,2.825,2.825,0,0,1-1.314-1.827,35.891,35.891,0,0,1-.763-4.24,61.538,61.538,0,0,1-.736-6.893,2.452,2.452,0,0,0-2.4-2.4,2.422,2.422,0,0,0-2.4,2.4Z"/><path class="b" d="M124.643,5.249A71.736,71.736,0,0,0,94.923.057,68.013,68.013,0,0,0,64.914,8.788,53.355,53.355,0,0,0,47.514,23.7,67.617,67.617,0,0,0,37.19,45.931c-3.139,11.394-4.034,23.359-3.661,35.136.1,3.081,4.9,3.1,4.8,0C37.765,63.262,39.96,44,49.863,28.719A46.022,46.022,0,0,1,64.354,14.688,64.284,64.284,0,0,1,91.029,5.15a67.047,67.047,0,0,1,32.338,4.727A2.416,2.416,0,0,0,126.319,8.2a2.458,2.458,0,0,0-1.676-2.952Z"/><path class="b" d="M146.4,79.288a4.5,4.5,0,0,1,6.378.731c.9,1.275.9,3.137.931,4.631a24.63,24.63,0,0,1-.456,5.372,24.289,24.289,0,0,1-3.887,9.361c-1.354,1.89-3.873,4.464-6.465,4a2.469,2.469,0,0,0-2.952,1.676,2.421,2.421,0,0,0,1.676,2.953c7.519,1.334,12.6-6.06,14.943-12.184A29.8,29.8,0,0,0,158.5,84.426c-.109-3.782-.979-7.441-4.38-9.566A9.473,9.473,0,0,0,143,75.894a2.421,2.421,0,0,0,0,3.394,2.45,2.45,0,0,0,3.394,0Z"/><path class="b" d="M74.45,76.007a13.285,13.285,0,0,0,5-1.37,9.006,9.006,0,0,0,3.565-2.953,2.4,2.4,0,0,0-2.71-3.526,2.666,2.666,0,0,0-1.434,1.1c-.041.06-.084.119-.127.177l.375-.486a5.458,5.458,0,0,1-.938.916l.486-.375a10.023,10.023,0,0,1-2.2,1.251l.573-.241a10.838,10.838,0,0,1-2.649.735l.638-.086c-.192.024-.385.043-.578.055a2.55,2.55,0,0,0-1.7.7,2.4,2.4,0,0,0,1.7,4.1Z"/><path class="d" d="M180.629,185.62c-2.259-4.074-6.423-9.544-8.852-11.629A97.273,97.273,0,0,0,155.6,163.077c-6.1-2.5-15.334-5.644-16.412-4.953-9.425,5.5-27.787,10.411-41.726,10.355a94.5,94.5,0,0,1-40.612-10.07c-1.13-.648-10.774,4.206-16.971,6.831l-.877.4a47.119,47.119,0,0,0-15.363,11.049C21.477,179,16.754,186,14.481,196.694c-6,28.223-8.741,84.371-12.074,121.926l55.63.357,106.074.68c-1.451-15.724-4.38-46.531-4.136-51.775,4.966,9.951,12.123,13.455,20.432,15.627,8.213,2.147,17.778.148,21.63-6.518A23.232,23.232,0,0,0,205,268.546c1.356-8.74-.67-16.4-2.667-23.7-.8-2.929-2.32-8.228-3.973-13.739-6.011-21.485-10.751-33.208-17.731-45.484"/><path class="b" d="M158.076,269.437a30.653,30.653,0,0,0,9.637,11.239,37.188,37.188,0,0,0,11.737,5.063c9.219,2.448,20.6.455,25.3-8.7,5.47-10.661,2.636-23.009-.4-33.927-3-10.786-6.02-21.628-9.715-32.2a161.558,161.558,0,0,0-11.928-26.5c-1.525-2.687-5.673-.271-4.145,2.423a148.794,148.794,0,0,1,9.912,21.125c3.708,9.87,6.518,20.042,9.459,30.158,2.816,9.69,6.435,20.023,4.685,30.235-.732,4.275-2.487,8.779-6.324,11.152a19.13,19.13,0,0,1-11.937,2.31,31.9,31.9,0,0,1-12.594-4.241,25.487,25.487,0,0,1-9.537-10.556c-1.423-2.743-5.567-.318-4.145,2.422Z"/><path class="b" d="M166.511,319.657c-1.342-14.535-2.8-29.07-3.792-43.636-.167-2.461-.351-4.932-.356-7.4-.007-3.088-4.807-3.094-4.8,0,.011,5.324.574,10.673,1.006,15.973.638,7.826,1.349,15.646,2.068,23.465q.536,5.8,1.074,11.6a2.465,2.465,0,0,0,2.4,2.4,2.417,2.417,0,0,0,2.4-2.4Z"/><path class="b" d="M4.807,318.62c1.943-21.928,3.309-43.9,5.152-65.84.909-10.812,1.9-21.621,3.21-32.394,1.07-8.833,2.072-17.937,4.481-26.526a45.812,45.812,0,0,1,5.871-13.116q.346-.519.713-1.024.151-.207.306-.413c-.341.452.026-.032.086-.1.571-.687,1.183-1.331,1.813-1.965a44.741,44.741,0,0,1,6.343-5.356c4.445-3.062,9.439-5.029,14.326-7.25,2.071-.94,4.163-1.916,6.247-2.765.83-.339,1.669-.674,2.528-.934.266-.081.563-.118.822-.213.435-.161-.455.009-.211.032.685.065-1.575-.744-.543-.108a49.845,49.845,0,0,0,7.839,3.509q4.095,1.613,8.327,2.843A97.248,97.248,0,0,0,91.4,170.615c11.627.961,23.467-.973,34.568-4.411A71.316,71.316,0,0,0,139.9,160.48c.336-.189.918-.272.06-.1-.107.021-.6-.048-.333.047a1.815,1.815,0,0,0,.418.015c.539,0-.4-.074-.021,0,.957.176,1.9.41,2.833.675,2.373.671,4.71,1.476,7.026,2.32a41.77,41.77,0,0,1,6.344,2.7c2.239,1.261,4.412,2.643,6.542,4.08,4.291,2.9,8.255,5.926,11.422,10.056a55.217,55.217,0,0,1,4.363,6.561c1.512,2.694,5.659.277,4.145-2.423a58.8,58.8,0,0,0-4.783-7.107,34.191,34.191,0,0,0-5.013-5.49,95.988,95.988,0,0,0-13.993-9.674,66.919,66.919,0,0,0-14.183-5.481,16.644,16.644,0,0,0-5.214-1.022,6.56,6.56,0,0,0-2.807,1.124c-1.018.544-2.057,1.048-3.108,1.523a87.408,87.408,0,0,1-15.392,5.079A92.979,92.979,0,0,1,100.967,166c-12.583.629-25.4-2.172-37.012-6.917-1.17-.478-2.325-1-3.467-1.536s-2.46-1.52-3.767-1.577a11.061,11.061,0,0,0-4.378,1.166c-4.73,1.9-9.351,4.107-14.006,6.186-9.052,4.042-17.047,10.508-21.528,19.455-4.426,8.836-5.86,18.708-7.232,28.391-1.492,10.529-2.584,21.112-3.551,31.7C3.952,265.582,2.52,288.352.65,311.086q-.31,3.768-.643,7.534a2.419,2.419,0,0,0,2.4,2.4,2.45,2.45,0,0,0,2.4-2.4Z"/><path class="b" d="M30.2,201.3c1.393,10.6,2.864,21.2,4.689,31.738,1.074,6.2,1.992,12.456,2.806,18.675.891,6.807,1.824,13.661,2.146,20.523.279,5.944-.51,11.984-1.031,17.895-.836,9.493-1.8,18.977-2.5,28.482a2.421,2.421,0,0,0,2.4,2.4,2.447,2.447,0,0,0,2.4-2.4c.626-8.5,1.464-16.99,2.229-25.482.574-6.376,1.416-12.859,1.349-19.272A169.161,169.161,0,0,0,42.87,254.6c-.843-6.683-1.738-13.369-2.856-20.012Q37.217,217.981,35,201.3a2.478,2.478,0,0,0-2.4-2.4,2.414,2.414,0,0,0-2.4,2.4Z"/><path class="b" d="M72.052,97.232c-1.459,2.043-3,3.964-3.664,6.439-.765,2.829-.356,6.32,2.013,8.3a6.559,6.559,0,0,0,7.847.363,7.558,7.558,0,0,0,2.939-7.66c-.551-2.941-2.553-5.493-4.395-7.751a2.409,2.409,0,0,0-3.395,0,2.469,2.469,0,0,0,0,3.394c.132.161.262.322.391.485.047.058.294.37.1.127s.021.028.047.063c.319.425.633.853.931,1.293.252.374.5.755.72,1.146q.156.272.3.552c.046.09.09.182.134.274.024.05.254.584.145.314-.1-.241.034.1.042.12.048.138.1.275.141.414.076.242.113.5.189.739.081.256,0-.044,0-.1.009.118.019.235.023.353s-.095.607-.026.708c-.1-.144.088-.443,0-.113-.022.086-.039.173-.062.258,0,.019-.193.588-.19.59-.083-.054.223-.412.023-.091-.061.1-.111.207-.172.307-.045.074-.1.145-.144.221-.146.259.371-.386,0,0-.144.147-.291.285-.441.426-.2.19.126-.12.135-.109s-.254.159-.291.179c-.074.042-.154.076-.228.117-.282.158.413-.114.1-.05-.082.016-.165.053-.246.074-.04.011-.559.175-.185.058.323-.1.009-.006-.106,0-.086,0-.171.006-.257.005a1.989,1.989,0,0,0-.341-.018c.023-.013.472.1.218.025a4,4,0,0,0-.572-.155c.035-.027.513.273.108.041l-.293-.168c-.413-.237.072.069.078.069-.05,0-.248-.238-.262-.251-.313-.3.15.285-.074-.085-.05-.081-.387-.544-.35-.638.009-.023.146.466.068.133-.041-.177-.111-.349-.153-.527-.025-.107-.04-.216-.065-.323-.081-.356-.013.35.007-.01.014-.249-.02-.5-.009-.755.007-.144.022-.287.033-.43,0,.045-.076.373-.009.1s.117-.566.2-.846c.089-.315.2-.619.313-.927-.014.04-.15.321-.03.073.066-.136.127-.274.2-.409a13.369,13.369,0,0,1,.776-1.288c.6-.9,1.266-1.755,1.895-2.636a2.411,2.411,0,0,0-.861-3.284,2.466,2.466,0,0,0-3.284.861Z"/><path class="b" d="M157.078,231.672l15.582,10.712a2.423,2.423,0,0,0,3.283-.861,2.448,2.448,0,0,0-.861-3.284L159.5,227.527a2.4,2.4,0,0,0-2.422,4.145Z"/><path class="b" d="M81.4,326.156c-6.431,3.028-9.726,9.908-11.892,16.319a10.247,10.247,0,0,0-.714,5.061,5.942,5.942,0,0,0,2.283,4.145c2.76,2,6.357,1.192,9.25-.031,3.479-1.469,6.394-5.23,4.48-9.065-1.63-3.263-5.861-4.168-9.174-3.828-7.086.728-13.343,5.667-17.37,11.308a26.534,26.534,0,0,0-4.57,10.2c-.379,2.042-.2,4.272,1.489,5.691a4.162,4.162,0,0,0,5.74-.178c2.021-2.319-1.36-5.728-3.394-3.394.006-.006.99-.221.81.012a6.28,6.28,0,0,0-.017-.855,16.206,16.206,0,0,1,1.036-3.486,24.733,24.733,0,0,1,3.272-5.878,22.434,22.434,0,0,1,11.045-8.174c1.874-.561,4.614-1.035,6.339.218,1.666,1.209-.683,2.7-1.836,3.146a8.8,8.8,0,0,1-2.868.739,3.193,3.193,0,0,1-1.515-.349c-1.027-1.334.225-3.763.8-5.284,1.833-4.887,4.3-9.853,9.233-12.178a2.419,2.419,0,0,0,.861-3.283,2.453,2.453,0,0,0-3.284-.861Z"/><path class="e" d="M81.969,243.487c-2.938,5.969-2.613,13.194-1.873,19.9,3.77.252,5.032,6.048,5.988,8.751a39.706,39.706,0,0,0,30.383,25.8c12.716,2.126,24.562-.56,36.413-11.467,2.3-2.118,5.472-6.68,9.052-5.32,2.2-2.157,3.631-6.183,4.728-9.044a24.414,24.414,0,0,0,1.824-10.922c-.867-9.458-8.841-16.907-16.94-20.876a81.849,81.849,0,0,0-19.845-6.452c-6.656-1.339-13.289-2.925-20.094-3.3-6.492-.353-13.158.4-19.052,3.142a22.444,22.444,0,0,0-9.61,8.042A18.413,18.413,0,0,0,81.969,243.487Z"/><path class="c" d="M103.356,314.8a5.665,5.665,0,0,1,.96-7.583,5.764,5.764,0,0,1,7.679.921c2.175,2.913.653,5.936-1.567,7.681A5.28,5.28,0,0,1,103.356,314.8Z"/><path class="b" d="M105.429,313.587c-.124-.178-.244-.358-.351-.547-.051-.089-.1-.182-.146-.273-.21-.379.124.367.03.1a6.539,6.539,0,0,1-.3-1.142l.085.638a5.751,5.751,0,0,1-.011-1.412l-.086.638a6.184,6.184,0,0,1,.2-.952c.045-.149.114-.295.154-.444-.178.67-.152.347-.06.153a6.485,6.485,0,0,1,.427-.758c.075-.113.158-.22.234-.331-.449.652-.239.306-.1.154s.3-.3.451-.446c.188-.184-.54.372-.061.06.11-.071.223-.138.339-.2.2-.1.592-.194-.116.028.143-.044.28-.1.424-.149a5.651,5.651,0,0,1,.882-.188l-.638.085a6.618,6.618,0,0,1,1.585,0l-.638-.086a7.66,7.66,0,0,1,1.416.353c.385.131-.608-.288-.068-.023.1.047.194.1.289.151s.185.109.276.167.478.349.1.058,0,.015.075.082.148.143.218.219c.2.213.1.293-.116-.174a5.178,5.178,0,0,0,.314.464c.093.151.171.309.257.465.219.4-.153-.5-.02-.043a6.7,6.7,0,0,1,.222.92l-.086-.638a4.958,4.958,0,0,1,0,1.155l.086-.638a5.317,5.317,0,0,1-.21.925c-.019.06-.04.12-.062.18q-.137.348.1-.221c-.089.14-.147.311-.229.457-.146.263-.346.5-.491.757.318-.57.186-.239.05-.081-.113.131-.231.258-.352.381-.212.215-.464.393-.671.608.472-.49.273-.2.065-.069-.085.052-.171.1-.259.148-.216.114-.617.177.115-.033-.1.028-.193.07-.291.1a5.535,5.535,0,0,1-.816.184l.638-.086a6.126,6.126,0,0,1-1.612,0l.638.086a6.194,6.194,0,0,1-.852-.187c-.064-.02-.386-.084-.411-.143,0,0,.573.268.273.113-.08-.041-.162-.079-.242-.121-.128-.069-.252-.142-.373-.222-.06-.039-.116-.086-.178-.123-.216-.132.405.36.231.175-.1-.105-.217-.193-.318-.3-.144-.15-.485-.622-.01.023a2.612,2.612,0,0,0-1.435-1.1,2.452,2.452,0,0,0-1.849.242,2.427,2.427,0,0,0-.861,3.284,7.422,7.422,0,0,0,3.845,2.784,8.133,8.133,0,0,0,4.309.1,7.451,7.451,0,0,0,3.637-2.26,8.355,8.355,0,0,0,2.244-4.266,7.192,7.192,0,0,0-1.2-5.381,7.745,7.745,0,0,0-3.8-2.79,7.83,7.83,0,0,0-8.089,1.679,8.1,8.1,0,0,0-.947,10.13,2.577,2.577,0,0,0,1.434,1.1,2.458,2.458,0,0,0,1.85-.242A2.431,2.431,0,0,0,105.429,313.587Z"/><path class="c" d="M116.467,297.94c12.716,2.126,24.562-.56,36.413-11.467,2.465-2.269,5.929-7.343,9.824-4.936,1.584.979,1.915,2.68,1.875,4.461a13.175,13.175,0,0,1-2.416,6.019c-11.619,15.634-29.819,22.018-48.808,17.272-19.407-4.85-32.712-14.886-37.571-34.916-.409-1.685-.654-6.1-.042-7.719s1.384-2.792,3.144-3.177c4.724-1.031,6.146,5.687,7.2,8.661A39.706,39.706,0,0,0,116.467,297.94Z"/><path class="b" d="M115.829,300.254a43.641,43.641,0,0,0,24.842-2.707,49,49,0,0,0,11.794-7.519,56.791,56.791,0,0,0,4.2-3.983c1-1.025,2.273-2.437,3.64-2.709a1.5,1.5,0,0,1,1.233.3,2.117,2.117,0,0,1,.639,1.655,8.667,8.667,0,0,1-1.652,4.881,39.2,39.2,0,0,1-8.313,8.855,41.861,41.861,0,0,1-20.824,9.032c-8.074,1.084-16.086-.35-23.738-2.936a48.458,48.458,0,0,1-17.509-9.906,40.216,40.216,0,0,1-10.7-16.845,23.57,23.57,0,0,1-1.605-9.992c.076-.885.492-2.338,1.7-2.588-.158.032.548-.025.683,0-.47-.074.422.207.213.107a5.311,5.311,0,0,1,.816.742c1.677,2.235,2.106,5.21,3.208,7.908a43.477,43.477,0,0,0,6.432,10.9,42.142,42.142,0,0,0,19.538,13.469,37.856,37.856,0,0,0,5.415,1.337,2.469,2.469,0,0,0,2.952-1.676,2.421,2.421,0,0,0-1.676-2.953,37.487,37.487,0,0,1-27.983-22.233c-1.244-2.946-1.79-6.278-3.6-8.966a7.411,7.411,0,0,0-4.2-3.272A6.492,6.492,0,0,0,75.5,262.6c-3.052,2.8-2.763,7.636-2.216,11.365a42.2,42.2,0,0,0,3.827,11.422,43.913,43.913,0,0,0,6.079,9.49,47.277,47.277,0,0,0,17.792,12.8c7.934,3.4,16.589,5.67,25.267,5.546a46.951,46.951,0,0,0,24.56-7.291,49.291,49.291,0,0,0,10.228-8.74c2.881-3.242,6.153-7.285,5.938-11.9a6.87,6.87,0,0,0-3.058-5.826,6.6,6.6,0,0,0-6.424-.176,16.59,16.59,0,0,0-4.559,3.71,50,50,0,0,1-4.918,4.5,38.166,38.166,0,0,1-24.642,8.7,44.313,44.313,0,0,1-6.267-.577,2.474,2.474,0,0,0-2.953,1.677A2.419,2.419,0,0,0,115.829,300.254Z"/><path class="b" d="M163.683,282.8a19.166,19.166,0,0,0,3.59-5.783,62.376,62.376,0,0,0,2.463-6.47,23.276,23.276,0,0,0-.121-15.074c-3.306-8.719-11.071-14.771-19.392-18.4a85.53,85.53,0,0,0-15.613-5.041c-5.476-1.223-11.014-2.413-16.572-3.2-10.249-1.444-21.659-1.108-30.5,4.963a22.646,22.646,0,0,0-9.3,12.862c-1.456,5.41-1.148,11.114-.553,16.624a2.471,2.471,0,0,0,2.4,2.4,2.415,2.415,0,0,0,2.4-2.4c-.9-8.309-1.229-17.638,5.472-23.749,6.838-6.237,17.019-7.206,25.83-6.407a135.819,135.819,0,0,1,15.136,2.613A111.573,111.573,0,0,1,143.4,239.5c7.712,2.707,15.514,6.838,19.939,14a17.9,17.9,0,0,1,2.414,13.286,43.463,43.463,0,0,1-2.359,7.149,16.683,16.683,0,0,1-3.1,5.464c-2.139,2.229,1.25,5.628,3.395,3.394Z"/><path class="c" d="M113.017,320.089a8.321,8.321,0,0,1,1.41-11.139c3.336-2.7,9-1.693,11.28,1.353,3.195,4.279.959,8.719-2.3,11.282C120.629,323.766,115.35,323.352,113.017,320.089Z"/><path class="b" d="M115.089,318.878a12.479,12.479,0,0,1-.73-1.2c-.011-.021-.176-.352-.063-.114s-.035-.086-.045-.114c-.094-.261-.18-.525-.249-.794-.05-.195-.077-.395-.126-.59.1.4.008.095-.007-.136-.028-.411.008-.811.016-1.221,0-.282-.007.172-.032.184a1.467,1.467,0,0,0,.045-.268q.056-.308.135-.611.066-.255.148-.5c.033-.1.216-.677.118-.357s.074-.158.118-.248c.072-.146.147-.291.226-.433a10.746,10.746,0,0,1,.578-.915,1,1,0,0,0,.131-.177s-.323.382-.155.207c.094-.1.176-.208.267-.308.182-.2.382-.37.574-.556.229-.221-.371.238,0,0,.14-.088.276-.182.419-.265.165-.1.351-.168.511-.269.235-.148-.206.087-.2.076a1.051,1.051,0,0,1,.309-.116,7.685,7.685,0,0,1,.955-.268c.088-.019.414-.132.489-.089.022.012-.514.038-.225.035.11,0,.222-.021.332-.027a8.927,8.927,0,0,1,1.085,0c.077,0,.454-.014.5.042.01.013-.5-.09-.225-.03.108.024.219.037.327.058a9.407,9.407,0,0,1,.963.24c.183.056.361.123.542.185.061.021.33.125.015,0s.017.01.082.043c.285.143.565.29.835.461.131.083.255.181.388.262.223.137-.193-.125-.179-.14s.215.183.232.2q.2.175.38.369c.074.078.344.459.153.153-.2-.327.182.265.244.36.144.222.278.449.4.683.073.14.246.593.111.206.068.194.139.385.2.583s.094.385.139.579c.077.331.094.034,0-.062.045.046.025.314.028.381.008.188.009.377,0,.566,0,.093-.019.188-.019.28,0,.3.014-.191.032-.175.107.1-.237,1.034-.283,1.174-.028.085-.227.6-.11.324s-.007.01-.03.055c-.056.112-.11.225-.169.336a9.586,9.586,0,0,1-.643,1.046c-.055.078-.112.154-.168.231.017-.023.262-.31.082-.111-.128.142-.246.292-.374.433a11.818,11.818,0,0,1-.951.935c-.07.061-.514.443-.25.22s-.11.072-.184.12c-.2.127-.71.274-.839.449.011-.014.465-.164.228-.1-.1.026-.19.069-.285.1-.193.063-.389.117-.587.164a2.379,2.379,0,0,0-.53.105c.005-.008.514-.048.252-.033-.1.007-.208.022-.312.03a8.732,8.732,0,0,1-1.109.01c-.051,0-.549-.066-.556-.05.009-.021.5.095.242.028-.129-.033-.264-.047-.394-.076-.367-.081-.718-.2-1.075-.314-.075-.024-.324-.074-.01,0s.011,0-.078-.041c-.166-.085-.332-.167-.494-.26s-.314-.2-.47-.3c-.1-.064-.284-.293-.076-.049s0-.007-.063-.066c-.136-.129-.274-.253-.4-.389-.114-.121-.519-.657-.137-.137a2.459,2.459,0,0,0-3.283-.861,2.426,2.426,0,0,0-.861,3.284,10.209,10.209,0,0,0,10.706,3.726A9.909,9.909,0,0,0,126.5,322a11.2,11.2,0,0,0,3.006-5.769,9.451,9.451,0,0,0-1.654-7.037,10.068,10.068,0,0,0-4.9-3.581c-3.578-1.279-8.1-.648-10.788,2.177a10.778,10.778,0,0,0-1.214,13.516,2.4,2.4,0,1,0,4.144-2.423Z"/><path class="c" d="M109.315,240.108a17.779,17.779,0,0,1,.031-5.862,52.185,52.185,0,0,1,3.333-12.914,14.384,14.384,0,0,1,7.3-8.18c2.07-1.057,4.2-1.158,9.3-.57a31.875,31.875,0,0,1,9.579,2.035,47.72,47.72,0,0,1,13.266,7.838c3.973,3.345,7.458,7.618,5.649,12.375-2.94,4.639-5.64,10.534-8.516,14.4a10.375,10.375,0,0,1-4.674,3.273,5.847,5.847,0,0,1-3.921-.032,2.868,2.868,0,0,1-1.745-3.219,8.169,8.169,0,0,1-2.465,4c-1.236,1-2.974,1.914-4.414,1.246-1.917-.889-3.153-2.43-2.71-5.571-1.29,2.579-3.655,4.252-5.878,3.617a5.464,5.464,0,0,1-3.253-3.106c-.644-1.915-1.692-5.9-1.529-7.9-.244,2.57-2.684,5.061-5.21,4.528-1.007-.212-3.216-2.139-3.846-4.574C109.5,241.037,109.4,240.583,109.315,240.108Z"/><path class="b" d="M111.629,239.47c-.521-3.125.294-6.817,1-9.979a32.193,32.193,0,0,1,3.628-9.949,10.972,10.972,0,0,1,2.491-2.814,13.023,13.023,0,0,1,1.624-1.062c.3-.172.609-.328.915-.49.095-.05.194-.1.293-.139-.221.1-.174.066.023,0a6.9,6.9,0,0,1,2.738-.416c1.66-.01,3.289.254,4.94.358,6.352.4,12.286,2.976,17.547,6.476,2.784,1.853,5.746,4.081,7.626,6.894a7.058,7.058,0,0,1,1.412,3.9c-.008,1.633-1.12,2.906-1.9,4.273-1.99,3.483-3.768,7.108-6.026,10.43a8.209,8.209,0,0,1-3.705,3.141,3.911,3.911,0,0,1-2.369.251c-.157-.054-.678-.241-.631-.461a2.4,2.4,0,0,0-4.628-1.276,6.044,6.044,0,0,1-1.549,2.677c-.479.434-1.363,1.141-2.046,1.012a1.7,1.7,0,0,1-1.136-.964,5.021,5.021,0,0,1-.144-2.417c.29-2.405-3.416-3.209-4.472-1.211-1.005,1.9-3.369,3.944-4.741,1.078a17.65,17.65,0,0,1-.991-3.557,13.326,13.326,0,0,1-.456-3.7,2.425,2.425,0,0,0-2.4-2.4,2.461,2.461,0,0,0-2.4,2.4,3.073,3.073,0,0,1-1.078,1.762,2.735,2.735,0,0,1-.85.421c-.178.065-.59-.088-.2.066-1.514-.592-2.218-2.738-2.522-4.311a2.423,2.423,0,0,0-2.952-1.677A2.451,2.451,0,0,0,107,240.746c.6,3.106,2.693,7.091,6.169,7.683,4.262.725,7.389-3.037,7.905-6.9h-4.8a20.026,20.026,0,0,0,.838,5.852c.515,2.047,1.077,4.044,2.619,5.577a6.511,6.511,0,0,0,6.431,1.854,9.149,9.149,0,0,0,5.244-4.685l-4.472-1.211c-.426,3.531,1.333,7.123,4.982,8.049,4.485,1.139,8.1-3.382,9.321-7.081l-4.628-1.276a5.3,5.3,0,0,0,2.409,5.685,7.835,7.835,0,0,0,6.5.429c4.266-1.428,6.671-5.252,8.795-8.949,1.081-1.882,2.1-3.8,3.164-5.691s2.574-3.768,2.988-5.918c.843-4.373-1.417-8.28-4.375-11.323A43.918,43.918,0,0,0,134.232,210.8c-1.876-.384-3.749-.488-5.642-.693a28.709,28.709,0,0,0-5.354-.236,14.224,14.224,0,0,0-8.507,4.019c-3.349,3.127-5,7.808-6.175,12.118-1.282,4.7-2.365,9.874-1.553,14.741a2.419,2.419,0,0,0,2.952,1.676A2.455,2.455,0,0,0,111.629,239.47Z"/><path class="b" d="M141.238,249.887a16.274,16.274,0,0,1,1.012-3.278c.288-.77.591-1.534.9-2.294q.144-.351.29-.7c.249-.6-.2.462.059-.139.195-.452.389-.9.587-1.353.722-1.636,1.474-3.26,2.285-4.853.321-.631.65-1.257,1-1.871.14-.243.283-.486.434-.723.137-.213.721-.967.1-.185a2.475,2.475,0,0,0,0-3.394,2.417,2.417,0,0,0-3.394,0c-2.009,2.516-3.281,5.683-4.57,8.6-.8,1.807-1.568,3.63-2.265,5.479a16.845,16.845,0,0,0-1.069,3.431,2.479,2.479,0,0,0,1.676,2.952,2.417,2.417,0,0,0,2.952-1.676Z"/><path class="b" d="M131.706,249.323c.564-4.075,1.264-8.149,2.174-12.161a47.234,47.234,0,0,1,3.749-10.118,2.464,2.464,0,0,0-.861-3.284,2.423,2.423,0,0,0-3.284.861,53.686,53.686,0,0,0-4.168,10.978c-.967,4.1-1.662,8.281-2.238,12.448A2.482,2.482,0,0,0,128.754,251a2.417,2.417,0,0,0,2.952-1.676Z"/><path class="b" d="M121.075,241.532c.018-.166.121-.624-.016.087.024-.128.039-.257.06-.385.051-.315.109-.628.17-.941.131-.67.279-1.337.435-2,.4-1.712.863-3.41,1.356-5.1.5-1.727,1.047-3.444,1.64-5.143.269-.772.549-1.541.847-2.3q.192-.493.4-.981c-.216.517.037-.077.067-.144.073-.165.149-.33.226-.494a2.47,2.47,0,0,0-.861-3.284,2.421,2.421,0,0,0-3.284.861,71.812,71.812,0,0,0-3.658,10.212,57.15,57.15,0,0,0-2.177,9.614,2.414,2.414,0,0,0,2.4,2.4,2.457,2.457,0,0,0,2.4-2.4Z"/><path class="b" d="M93.063,119.764q.418-.22.845-.422c.507-.239-.529.188.052-.017.206-.073.412-.147.622-.211a8.618,8.618,0,0,1,1.731-.39c-.014-.034-.519.058.028,0,.17-.018.341-.034.511-.046.413-.031.826-.046,1.24-.048.386,0,.771.006,1.156.029.177.01.355.023.532.039.1.01.762.023.148.008a6.617,6.617,0,0,1,1.711.385c.237.074.468.187.706.253-.055-.015-.517-.246-.24-.1.1.053.2.1.3.148.145.076.286.156.424.243.2.126.719.53-.036-.059a2.466,2.466,0,0,0,3.394,0c.79-.861,1.057-2.57,0-3.394a12.61,12.61,0,0,0-7.853-2.355,15.974,15.974,0,0,0-7.692,1.789,2.42,2.42,0,0,0-.861,3.284,2.454,2.454,0,0,0,3.284.861Z"/><path class="b" d="M97.12,97.07a42.32,42.32,0,0,1,1,4.558l-.086-.638a2.767,2.767,0,0,1,.017.63l.086-.638a1.54,1.54,0,0,1-.07.283l.242-.574a1.144,1.144,0,0,1-.1.182l.375-.485a.979.979,0,0,1-.149.146l.486-.375a2.966,2.966,0,0,1-.361.191l.573-.242a2.643,2.643,0,0,1-.609.178l.638-.086a2.424,2.424,0,0,1-.571,0l.638.086c-.215-.03-.427-.083-.642-.112a1.812,1.812,0,0,0-.957-.042,1.786,1.786,0,0,0-.893.284,2.4,2.4,0,0,0-.861,3.284,2.3,2.3,0,0,0,1.435,1.1c.5.067.977.193,1.481.215a4.74,4.74,0,0,0,2.19-.522,3.173,3.173,0,0,0,1.756-2.091,5.236,5.236,0,0,0-.022-2.246c-.248-1.468-.588-2.924-.965-4.364A2.4,2.4,0,1,0,97.12,97.07Z"/><path class="b" d="M73.075,84.142c-.761,2.474-.265,8.166,4.422,8.65,6.195-.037,6.525-6.918,4.439-10.153C80.229,79.99,75.208,78.888,73.075,84.142Z"/><path class="b" d="M122.683,84.143c.762,2.474.266,8.165-4.421,8.649-6.2-.037-6.525-6.918-4.44-10.153C115.529,79.99,120.55,78.889,122.683,84.143Z"/></svg>